<?xml version="1.0" encoding="utf-8"?>
<!-- Generator: Adobe Illustrator 27.0.1, SVG Export Plug-In . SVG Version: 6.00 Build 0)  -->
<svg version="1.1" id="Layer_1" xmlns="http://www.w3.org/2000/svg" xmlns:xlink="http://www.w3.org/1999/xlink" x="0px" y="0px"
	 viewBox="0 0 60.8 30.5" style="enable-background:new 0 0 60.8 30.5;" xml:space="preserve">
<style type="text/css">
	.st0{fill:url(#SVGID_1_);}
	.st1{fill:#FFFFFF;}
</style>
<linearGradient id="SVGID_1_" gradientUnits="userSpaceOnUse" x1="38.9864" y1="30.1065" x2="26.8595" y2="7.7246">
	<stop  offset="0" style="stop-color:#39C4F3"/>
	<stop  offset="1" style="stop-color:#B415FF"/>
</linearGradient>
<path class="st0" d="M4.2,3.6C3.9,3.7,34.7,26.8,34.9,27.1l21.3-2.9"/>
<path class="st1" d="M13.6,25.7h2.7c0.7,0,1.2-0.5,1.2-1.2v-7.2c0-1.1,1.4-1.6,2.1-0.7l2.4,3.1c0.4,0.6,1.3,0.6,1.8,0.1l5.2-5.5
	c0.2-0.2,0.5-0.4,0.9-0.4h2.9c0.7,0,1.2-0.5,1.2-1.2V7.8c0-0.7-0.5-1.2-1.2-1.2h-5.4c-0.4,0-0.7,0.2-1,0.5l-2.2,3.1
	c-0.5,0.7-1.5,0.7-1.9,0L20,7.1c-0.2-0.3-0.6-0.5-1-0.5h-5.5c-0.7,0-1.2,0.5-1.2,1.2v16.7C12.4,25.1,12.9,25.7,13.6,25.7z"/>
<path class="st1" d="M30.3,14.8l8.4,0.1c0.6,0,1.1-0.5,1.1-1.1v-6c0-0.6,0.5-1.1,1.1-1.1h2.5c0.6,0,1.1,0.5,1.1,1.1v16.9
	c0,0.6-0.5,1.1-1.1,1.1h-2.5c-0.6,0-1.1-0.5-1.1-1.1l-0.1-5.5c0-0.6-0.5-1.1-1.1-1.1h-8.4c-0.6,0-1.1-0.5-1.1-1.1v-1
	C29.1,15.3,29.6,14.8,30.3,14.8z"/>
<path class="st1" d="M30.1,18.9h2.5c0.7,0,1.2,0.5,1.2,1.1v4.2c0,0.8-0.7,1.4-1.6,1.4h-1.8c-0.9,0-1.6-0.6-1.6-1.4v-4.1
	C28.9,19.5,29.5,18.9,30.1,18.9z"/>
</svg>
